<?xml version="1.0" encoding="utf-8"?>
<!-- Generator: Adobe Illustrator 26.3.1, SVG Export Plug-In . SVG Version: 6.00 Build 0)  -->
<svg version="1.1" id="Layer_1" xmlns="http://www.w3.org/2000/svg" xmlns:xlink="http://www.w3.org/1999/xlink" x="0px" y="0px"
	 viewBox="0 0 1920 1080" style="enable-background:new 0 0 1920 1080;" xml:space="preserve">
<style type="text/css">
	.st0{fill:#FCEE21;}
	.st1{fill:#F23005;}
	.st2{fill:#303EBC;}
	.st3{fill:none;}
	.st4{font-family:'ErasITC-Bold';}
	.st5{font-size:332.5956px;}
</style>
<path class="st0" d="M586.15,717.58H835.1C900.89,607.11,878,470,766.21,378.18c-140.74-115.61-368.91-115.61-509.65,0
	c-140.74,115.61-140.74,303.04,0,418.65c140.74,115.61,368.91,115.61,509.65,0c9.25-7.6,17.85-15.52,25.88-23.7H586.15V717.58z"/>
<path class="st1" d="M1859.6,710.62l-1037.66-6.9c-1.75-0.01-3.31,0.91-3.9,2.29c-9.75,22.6-21.46,44.33-35.21,64.78
	c-1.55,2.31,0.43,5.18,3.58,5.2l1072.72,7.13c2.29,0.02,4.15-1.54,4.16-3.46l0.44-65.53
	C1863.73,712.21,1861.89,710.64,1859.6,710.62z"/>
<path class="st2" d="M529.17,703.73v69.63h255.44c21.23-21.84,38.96-45.22,53.34-69.63H529.17z"/>
<g>
	<path id="SVGID_x5F_1_x5F_" class="st3" d="M186.94,606.53C173.63,469.7,303.01,343.57,475.93,324.81
		c172.92-18.76,323.89,76.96,337.21,213.79"/>
	<text>	<textPath  xlink:href="#SVGID_x5F_1_x5F_" startOffset="6.000000e-03%">
<tspan  style="fill:#0000FF; font-family:'BerlinSansFBDemi-Bold'; font-size:46.5431px; letter-spacing:203.92;">Coding is a passion</tspan>	</textPath>
</text>
</g>
<g>
	<text transform="matrix(0.7611 0 0 1 519.5537 692.9998)" class="st2 st4 st5">Mustafa P.</text>
</g>
</svg>
